<svg xmlns="http://www.w3.org/2000/svg" width="40" height="40" viewBox="0 0 40 40">
  <path id="box-alt_1_" data-name="box-alt(1)" d="M16.667,10V0h6.667V10a3.333,3.333,0,1,1-6.667,0Zm10-1.667H40A8.343,8.343,0,0,0,31.667,0h-5ZM13.333,0h-5A8.343,8.343,0,0,0,0,8.333H13.333ZM40,11.667v20A8.343,8.343,0,0,1,31.667,40H8.333A8.343,8.343,0,0,1,0,31.667v-20H13.57a6.635,6.635,0,0,0,12.86,0Zm-6.667,20A1.667,1.667,0,0,0,31.667,30h-5a1.667,1.667,0,0,0,0,3.333h5A1.667,1.667,0,0,0,33.333,31.667Z" fill="#60df00"/>
</svg>
